<?xml version="1.0" encoding="UTF-8"?>
<svg id="Capa_2" data-name="Capa 2" xmlns="http://www.w3.org/2000/svg" viewBox="0 0 261.91 235.49">
  <defs>
    <style>
      .cls-1 {
        fill: #03be80;
      }
    </style>
  </defs>
  <g id="Capa_1-2" data-name="Capa 1">
    <path class="cls-1" d="M175.09,189.67c29.94,21.87,63.58,14.04,63.36-1.57-.1-6.89,4.83-12.3,11.53-12.58s11.79,4.97,11.93,12.08c.33,16.99-14.97,32.26-28.85,42.36-1.79,1.3-2.81,5.34-5.83,5.35l-40.8.18c-4.05.02-6.94-2.43-8.37-5.86l-5.29-12.79c-11.47-6.15-21.54-13.26-32.28-20.58-18.51-12.62-40.94-16.79-62.14-9.2-2.35.84-6.54,2.03-7.8,4.23l-14.74,37.34c-1.44,3.64-3.86,6.85-8.31,6.83l-41.89-.12c-3.07,0-6.6-3.31-5.35-6.56L58.09,78.39c-6.58-24.22-7.99-48.7-4.71-73.18.31-2.29,1.78-4.2,3.14-4.82,1.8-.82,4.96-.3,6.88,1.08,13.41,9.59,24.38,21.22,35.28,34.01,13.95-3.16,27.76-3.19,41.88.31l23.29-23.08c9.51-7.9,22.38-18.91,23.49-8.3,2.61,24.95.24,49.42-6.48,73.94l22.51,66.84,17.27,52.49c-24.52,3.15-44.06-12.27-62.61-26.93l-35.68-89.23c-.63-1.57-1.34-2.92-3.25-3.8-5.94,10.33-9.99,20.74-14.57,31.61l-19.92,47.32c25.41-3.56,48.31,2.23,67.91,16.54l22.57,16.49ZM81.93,42.78l-15.57-17.37c-1.08,11.71-.65,21.94,1.15,33.56,4.19-7.08,8.95-11.5,14.41-16.19ZM172.04,59.11c2.13-11.8,2.57-21.92,1.47-33.19l-16.53,17.56c6.83,3.95,11.08,9.4,15.07,15.63Z"/>
  </g>
</svg>