<?xml version="1.0" encoding="UTF-8"?>
<svg id="Capa_2" data-name="Capa 2" xmlns="http://www.w3.org/2000/svg" viewBox="0 0 1175.97 245.03">
  <defs>
    <style>
      .cls-1 {
        fill: #1a232c;
      }

      .cls-2 {
        fill: #03be80;
      }
    </style>
  </defs>
  <g id="Capa_1-2" data-name="Capa 1">
    <g>
      <g>
        <path class="cls-1" d="M1175.97,230.25c.02,11.45-16.17,16.56-27.77,11.68-5.35-2.25-9.51-7.07-9.76-12.87l-.67-15.3c-17.49,20.23-41.44,30.7-67.77,31.24-52.88,1.08-97.53-39.65-100.39-92.35-1.99-36.75,15.82-70.43,47.43-89.35,20.85-12.48,44.4-16.77,68.76-14.53s46.77,11.12,64.15,28.48c16.44,16.43,25.8,38.53,25.84,62.04l.18,90.96ZM1135.95,146.52c0-34.97-28.33-63.32-63.28-63.32s-63.28,28.35-63.28,63.32,28.33,63.32,63.28,63.32,63.28-28.35,63.28-63.32Z"/>
        <path class="cls-1" d="M929.25,187.25c-.08,34.35-28.9,53.19-61.27,56.77-32.77,3.62-65.3-4.04-91.41-24.31-5.34-4.14-6.04-12.38-4.08-18.32s7.77-10.63,14.6-11.87c6.42-1.17,11.49.48,16.6,4.13,35.99,25.71,85.85,17.36,86.72-5.92.47-12.42-13.88-19.84-26.92-23.13l-37.47-9.46c-10.52-2.66-20.09-6.92-29.16-12.66-16.18-10.24-23.99-28.07-21.28-47.05,2.38-16.7,12.71-29.98,27.77-37.99,13.98-7.43,29.61-9.81,45.7-9.92,21.79-.15,42.7,4.94,60.76,16.85,7.01,4.63,11.16,12.7,7.9,20.92-4.15,10.46-18,15.04-27.59,8.91-14.75-9.42-31.21-14.54-48.71-12.69-14.57,1.53-27.46,7.25-26.98,21.22.22,6.43,3.89,12.5,10.68,14.64l24.3,7.67,36.52,10.35c8.8,2.49,16.57,6.68,23.76,12.09,12.85,9.67,19.61,23.72,19.57,39.77Z"/>
      </g>
      <g>
        <path class="cls-1" d="M467.72,240.38l-143.26.26c-9.2.02-15.74-6.34-16.34-15.4-.48-7.25,2.34-13.49,7.33-19.15l105.96-119.98-96.79-.44c-9.38-.04-15.2-9.51-14-18.31.68-7.83,6.59-15.41,15.07-15.4l136.24.07c11.33,0,17.34,11.34,15.51,21.17-1.35,7.23-4.13,11.3-8.88,16.61l-103.8,116.29,103.48.68c9.99.07,15.16,12.56,12.8,21.19-1.55,6.03-5.84,12.42-13.32,12.43Z"/>
        <path class="cls-1" d="M718.47,65.83l.47,96.41c.1,19.98-7.04,38.91-20.14,53.69-25.92,29.26-73.69,35.37-109.48,23.17-32.05-10.92-55.95-39.44-57.19-73.81l-.13-99.03c-.01-9.94,11.42-16.1,19.64-15.92,9.27.2,18.88,6.88,18.96,17.1l.79,94.68c.15,18.01,11.96,33.13,28.05,39.87,15.72,6.59,32.75,7.06,48.78,1.39,18.03-6.37,31.21-22.66,31.31-42.14l.5-93.46c.05-9.98,9-16.62,17.8-17.29,8.28-.63,20.58,4.78,20.63,15.34Z"/>
      </g>
      <path class="cls-2" d="M175.09,189.67c29.94,21.87,63.58,14.04,63.36-1.57-.1-6.89,4.83-12.3,11.53-12.58s11.79,4.97,11.93,12.08c.33,16.99-14.97,32.26-28.85,42.36-1.79,1.3-2.81,5.34-5.83,5.35l-40.8.18c-4.05.02-6.94-2.43-8.37-5.86l-5.29-12.79c-11.47-6.15-21.54-13.26-32.28-20.58-18.51-12.62-40.94-16.79-62.14-9.2-2.35.84-6.54,2.03-7.8,4.23l-14.74,37.34c-1.44,3.64-3.86,6.85-8.31,6.83l-41.89-.12c-3.07,0-6.6-3.31-5.35-6.56L58.09,78.39c-6.58-24.22-7.99-48.7-4.71-73.18.31-2.29,1.78-4.2,3.14-4.82,1.8-.82,4.96-.3,6.88,1.08,13.41,9.59,24.38,21.22,35.28,34.01,13.95-3.16,27.76-3.19,41.88.31l23.29-23.08c9.51-7.9,22.38-18.91,23.49-8.3,2.61,24.95.24,49.42-6.48,73.94l22.51,66.84,17.27,52.49c-24.52,3.15-44.06-12.27-62.61-26.93l-35.68-89.23c-.63-1.57-1.34-2.92-3.25-3.8-5.94,10.33-9.99,20.74-14.57,31.61l-19.92,47.32c25.41-3.56,48.31,2.23,67.91,16.54l22.57,16.49ZM81.93,42.78l-15.57-17.37c-1.08,11.71-.65,21.94,1.15,33.56,4.19-7.08,8.95-11.5,14.41-16.19ZM172.04,59.11c2.13-11.8,2.57-21.92,1.47-33.19l-16.53,17.56c6.83,3.95,11.08,9.4,15.07,15.63Z"/>
    </g>
  </g>
</svg>